# xmcd
#
# Track frame offsets:
#	150
#	14910
#	34297
#	46205
#	59115
#	74297
#	94212
#	106437
#	120107
#	132982
#	142957
#	167265
#	178670
#	194095
#	208837
#	223702
#
# Disc length: 3144
#
# Revision: 1
# Processed by: cddbd v1.5.1PL0 Copyright (c) Steve Scherf et al.
# Submitted via: VisiTrax 2.9.5.180 - For more info visit www.synapsa.com
# Normalized: r0:DSETVAR1
#
DISCID=f70c4610
DTITLE=Various Artist - Real Country 1
DYEAR=2000
DGENRE=
TTITLE0=Bellamy Brothers - Lovers live longer
TTITLE1=Kenny Rogers - She believes in me
TTITLE2=Glen Campbell - Galveston
TTITLE3=Tanya Tucker - San Antonio stroll
TTITLE4=Shenandoah - Two dozen roses
TTITLE5=Suzy Bogguss - Just enough rope
TTITLE6=Merle Haggard - Okie frm Muskogee
TTITLE7=John Denver - Thank God I'm a country boy
TTITLE8=Barbara Mandrell - I wish that I could fall in love today
TTITLE9=Ned Miller - From a Jack to a King
TTITLE10=Smokie - If you think you know how to love me
TTITLE11=Crstal Gayle - Don't it make my brown eyes blue
TTITLE12=Steve Wariner - Big ol' empty house
TTITLE13=Juice Newton - Queen of hearts
TTITLE14=Ed Bruce - Mammas don't let your babies grow up to be cowboys
TTITLE15=Billie Jo Spears/The Jordanaires - What I've got in mind
EXTD=
EXTT0=
EXTT1=
EXTT2=
EXTT3=
EXTT4=
EXTT5=
EXTT6=
EXTT7=
EXTT8=
EXTT9=
EXTT10=
EXTT11=
EXTT12=
EXTT13=
EXTT14=
EXTT15=
PLAYORDER=
